<?xml version="1.0" encoding="utf-8"?>
<!-- Generator: Adobe Illustrator 25.4.1, SVG Export Plug-In . SVG Version: 6.00 Build 0)  -->
<svg version="1.1" id="Layer_1" xmlns="http://www.w3.org/2000/svg" xmlns:xlink="http://www.w3.org/1999/xlink" x="0px" y="0px"
	 viewBox="0 0 500 86" style="enable-background:new 0 0 500 86;" xml:space="preserve">
<style type="text/css">
	.st0{enable-background:new    ;}
	.st1{fill:#FFFFFF;}
	.st2{fill:#FFAA0F;}
</style>
<g class="st0">
	<path class="st1" d="M129.5,79.4l21.8-66.2h7.9l-2.1,66.2h-7.5l0.6-10.9h-9l-3.2,10.9H129.5z M150.6,61l1.5-29.3L143.4,61H150.6z"
		/>
	<path class="st1" d="M173.2,13.2h17.4c1.6,0,3,0.6,4.2,1.8c1.1,1.1,1.7,2.4,1.7,3.9c0,0.4,0,0.8-0.1,1.3l-3.9,20.9
		c-0.6,2.9-2.3,4.7-5.1,5.5c1.1,0.4,1.9,1.1,2.4,2.1c0.4,0.8,0.6,1.7,0.6,2.7c0,0.2,0,0.4,0,0.7c0,0.5,0,0.8,0,1.1l-3.6,20.1
		c-0.3,1.8-1.1,3.2-2.5,4.3c-1.4,1.1-2.9,1.7-4.7,1.7h-18.4L173.2,13.2z M170.5,71.9h6.4c0.7,0,1.3-0.2,1.8-0.6
		c0.5-0.4,0.8-0.9,0.9-1.6l3.1-17.4V52c0-0.5-0.2-1-0.6-1.3c-0.4-0.4-0.8-0.6-1.3-0.6h-6.4L170.5,71.9z M175.8,42.2h6.4
		c0.7,0,1.3-0.2,1.8-0.7c0.5-0.4,0.8-1,0.9-1.6l3.3-17.1v-0.3c0-0.6-0.2-1-0.6-1.4c-0.4-0.3-0.8-0.5-1.3-0.5h-6.6L175.8,42.2z"/>
	<path class="st1" d="M191.2,79.4l12-66.2h7.9L206,41.5h8.5l5.2-28.4h7.9l-12,66.2h-8l5.5-30.4h-8.5l-5.5,30.4H191.2z"/>
	<path class="st1" d="M233.2,13.2h18l-1.3,7.4h-10l-3.7,21h9.9l-1.4,7.4h-9.9l-4.1,23h9.8l-1.3,7.4h-18L233.2,13.2z"/>
	<path class="st1" d="M256.7,13.2h18l-1.3,7.4h-10l-3.7,21h9.9l-1.4,7.4h-9.9l-4.1,23h9.8l-1.3,7.4h-18L256.7,13.2z"/>
	<path class="st1" d="M282,79.4l12-66.2h7.9l-5.2,28.4l15.6-28.4h8.6l-18.4,33.2l6.1,33h-8.4l-4.8-30.4L290,79.4H282z"/>
	<path class="st1" d="M312.1,79.4l11.9-66.2h17.8c1.6,0,3,0.6,4.2,1.8c1.2,1.1,1.8,2.5,1.8,4.2c0,0.2-0.1,0.5-0.2,1.1l-3.7,20.9
		c-0.5,2.9-2.2,4.7-5.1,5.5c1.1,0.4,1.9,1.1,2.4,2.1c0.4,0.8,0.6,1.7,0.6,2.7c0,0.2,0,0.4,0,0.7c0,0.5,0,0.8,0,1.1l-4.8,26.2h-8.1
		l4.8-27.1V52c0-0.5-0.2-1-0.6-1.3c-0.4-0.4-0.8-0.6-1.3-0.6h-6.4l-5.2,29.2H312.1z M326.8,42.2h6.4c0.7,0,1.3-0.2,1.8-0.7
		c0.5-0.4,0.8-1,0.9-1.6l3.1-17.1v-0.3c0-0.6-0.2-1-0.6-1.4c-0.4-0.3-0.9-0.5-1.4-0.5h-6.4L326.8,42.2z"/>
	<path class="st1" d="M350.4,79.4h-8l12-66.2h7.9L350.4,79.4z"/>
	<path class="st1" d="M360.1,55.5h7.7l-2.5,14.2v0.2c0,0.5,0.2,1,0.6,1.4c0.4,0.4,0.8,0.6,1.3,0.6h4.2c0.7,0,1.3-0.2,1.8-0.6
		c0.6-0.5,0.9-1,1.1-1.7l1.7-9.3c0.1-0.3,0.1-0.6,0.1-0.9c0-1.2-0.6-2.8-1.7-4.8c-0.5-0.8-1.8-3.3-3.9-7.3c-2.4-4.5-3.8-7.1-4.2-7.8
		c-1.2-2.3-1.8-4.6-1.8-6.8c0-0.1,0-0.3,0-0.4c0-0.5,0-1.1,0.1-1.6l2-11.4c0.3-1.7,1.2-3.2,2.6-4.3c1.4-1.1,2.9-1.7,4.7-1.7H385
		c1.6,0,3,0.6,4.2,1.8c1.2,1.2,1.8,2.6,1.8,4.3c0,0.4,0,0.7-0.1,1L388,36.5h-7.8l2.4-13.7c0.1-0.1,0.1-0.2,0.1-0.4
		c0-0.5-0.2-0.9-0.6-1.3c-0.4-0.3-0.9-0.5-1.4-0.5h-4.2c-0.7,0-1.3,0.2-1.8,0.6c-0.5,0.4-0.8,0.9-1,1.5l-1.3,7.3
		c-0.1,0.6-0.1,1.1-0.1,1.7c0,2.2,0.7,4.4,2.1,6.7c5.3,8.6,8,13.5,8.3,14.6c0.8,1.5,1.2,3.1,1.2,4.8c0,0.8-0.1,1.6-0.3,2.5
		l-2.4,12.8c-0.3,1.7-1.2,3.2-2.5,4.3c-1.4,1.1-3,1.7-4.8,1.7h-11c-1.6,0-3-0.6-4.1-1.8c-1.1-1.2-1.6-2.6-1.6-4.3v-1.1L360.1,55.5z"
		/>
	<path class="st1" d="M385.5,79.4l12-66.2h7.9l-5.2,28.4h8.5l5.2-28.4h7.9l-12,66.2h-8l5.5-30.4H399l-5.5,30.4H385.5z"/>
	<path class="st1" d="M415.5,79.4l12-66.2h8c2.4,23.9,3.6,40.7,3.6,50.6c0.3-8.7,2.7-25.5,7.2-50.6h8l-12,66.2h-8
		c-2.4-23.8-3.6-40.2-3.6-49.4c-0.3,7.6-2.7,24.1-7.2,49.4H415.5z"/>
	<path class="st1" d="M446.2,79.4l21.8-66.2h7.9l-2.1,66.2h-7.5l0.6-10.9h-9l-3.2,10.9H446.2z M467.3,61l1.5-29.3L460.1,61H467.3z"
		/>
</g>
<ellipse transform="matrix(0.9985 -5.530036e-02 5.530036e-02 0.9985 -1.4319 3.3502)" class="st2" cx="59.8" cy="27.5" rx="18.8" ry="18.8"/>
<circle class="st2" cx="88.9" cy="62.2" r="18.8"/>
<circle class="st2" cx="33.8" cy="62.2" r="18.8"/>
</svg>
